<?xml version="1.0" encoding="UTF-8"?>
<svg xmlns="http://www.w3.org/2000/svg" xmlns:xlink="http://www.w3.org/1999/xlink" width="2400" height="1680" viewBox="0 0 2400 1680">
<rect x="-240" y="-168" width="2880" height="2016" fill="rgb(0%, 0%, 0%)" fill-opacity="1"/>
<path fill-rule="evenodd" fill="rgb(99.609375%, 99.609375%, 99.609375%)" fill-opacity="1" d="M 886.792969 821 C 886.792969 821 1116.429688 1037.964844 856.703125 1280.265625 C 983.363281 1279.785156 1734.21875 1316.578125 1569.570312 996.667969 C 1527.820312 915.53125 1413.828125 845.726562 1295.179688 807.3125 C 1081.730469 738.203125 822.855469 659.128906 826.609375 347.480469 C 719.492188 767.324219 1075.960938 805.308594 1274.390625 927.328125 C 1438.089844 1027.988281 1361.5 1138.925781 1124.328125 1131.394531 C 1124.328125 1131.394531 1146.5 963.527344 886.792969 821 "/>
<path fill-rule="evenodd" fill="rgb(99.609375%, 99.609375%, 99.609375%)" fill-opacity="1" d="M 886.792969 859 C 886.792969 859 1116.429688 642.039062 856.703125 399.730469 C 983.363281 400.210938 1734.21875 363.421875 1569.570312 683.332031 C 1527.820312 764.46875 1413.828125 834.273438 1295.179688 872.6875 C 1081.730469 941.796875 822.855469 1020.871094 826.609375 1332.523438 C 719.492188 912.675781 1075.960938 874.691406 1274.390625 752.675781 C 1438.089844 652.011719 1361.5 541.070312 1124.328125 548.609375 C 1124.328125 548.609375 1146.5 716.472656 886.792969 859 "/>
</svg>
